# xmcd
#
# Track frame offsets:
#	150
#	6425
#	10433
#	14229
#	18092
#	22020
#	25953
#	29739
#	33848
#	37471
#	41638
#	45448
#	50068
#	60174
#	94020
#	97043
#	102331
#	112570
#	122107
#	132696
#	141724
#	150130
#	152813
#	157855
#	163547
#	167347
#	173812
#	179738
#	186321
#	192084
#
# Disc length: 2631 seconds
#
# Revision: 1
# Processed by: cddbd v1.5.1PL0 Copyright (c) Steve Scherf et al.
# Submitted via: CDex 1.50Beta5
#
DISCID=940a451e
DTITLE=ベレ出版 - TOEIC 860-2
DYEAR=1900
DGENRE=Other
TTITLE0=REC 1
TTITLE1=REC 2
TTITLE2=REC 3
TTITLE3=REC 4
TTITLE4=REC 5
TTITLE5=REC 6
TTITLE6=REC 7
TTITLE7=REC 8
TTITLE8=REC 9
TTITLE9=REC 10
TTITLE10=REC 11
TTITLE11=REC 12
TTITLE12=REC 13
TTITLE13=REC 14
TTITLE14=REC 15
TTITLE15=REC 16
TTITLE16=REC 17
TTITLE17=REC 18
TTITLE18=REC 19
TTITLE19=REC 20
TTITLE20=REC 21
TTITLE21=REC 22
TTITLE22=REC 23
TTITLE23=REC 24
TTITLE24=REC 25
TTITLE25=REC 26
TTITLE26=REC 27
TTITLE27=REC 28
TTITLE28=REC 29
TTITLE29=REC 30
EXTD=
EXTT0=
EXTT1=
EXTT2=
EXTT3=
EXTT4=
EXTT5=
EXTT6=
EXTT7=
EXTT8=
EXTT9=
EXTT10=
EXTT11=
EXTT12=
EXTT13=
EXTT14=
EXTT15=
EXTT16=
EXTT17=
EXTT18=
EXTT19=
EXTT20=
EXTT21=
EXTT22=
EXTT23=
EXTT24=
EXTT25=
EXTT26=
EXTT27=
EXTT28=
EXTT29=
PLAYORDER=
